<?xml version="1.0" encoding="utf-8"?>
<!-- Generator: Adobe Illustrator 16.0.0, SVG Export Plug-In . SVG Version: 6.00 Build 0)  -->
<!DOCTYPE svg PUBLIC "-//W3C//DTD SVG 1.1//EN" "http://www.w3.org/Graphics/SVG/1.1/DTD/svg11.dtd">
<svg version="1.1" id="Layer_1" xmlns="http://www.w3.org/2000/svg" xmlns:xlink="http://www.w3.org/1999/xlink" x="0px" y="0px"
	 width="169.591px" height="177.09px" viewBox="0 0 169.591 177.09" enable-background="new 0 0 169.591 177.09"
	 xml:space="preserve">
<g>
	<path fill="none" d="M74.698,73.651c9.782,0,18.624,4.01,24.983,10.471c-2.887-9.502-9.498-17.134-17.933-21.499
		c-3.137-0.934-6.437-1.441-9.83-1.441c-1.761,0-3.543,0.135-5.298,0.4c-9.27,1.402-17.438,6.331-23.002,13.878
		c-5.563,7.547-7.854,16.809-6.452,26.078c0.46,3.039,1.318,5.94,2.508,8.663c-0.021-0.495-0.038-0.99-0.038-1.49
		C39.637,89.348,55.335,73.651,74.698,73.651z"/>
	<path fill="#FCD6D7" d="M77.405,132.856c-1.847,0.28-3.723,0.421-5.576,0.421c-13.119,0-24.97-7.101-31.539-17.832
		c3.142,16.14,17.349,28.326,34.408,28.326c19.363,0,35.06-15.698,35.06-35.061c0-3-0.379-5.912-1.088-8.69
		C107.005,116.412,94.431,130.278,77.405,132.856z"/>
	<path fill="#FCD6D7" d="M70.602,130.275c19.68-2.979,33.222-21.348,30.244-41.03c-0.267-1.76-0.661-3.469-1.164-5.123
		c-6.359-6.461-15.201-10.471-24.983-10.471c-19.363,0-35.062,15.696-35.062,35.06c0,0.5,0.017,0.996,0.038,1.49
		c4.548,10.419,14.008,18.158,25.185,20.471C66.752,130.688,68.669,130.567,70.602,130.275z"/>
	<circle cx="2.661" cy="148.082" r="2.661"/>
	<path d="M71.919,59.298c-1.854,0-3.731,0.142-5.579,0.422c-9.768,1.477-18.375,6.67-24.236,14.622
		c-5.862,7.952-8.275,17.71-6.797,27.478c0.747,4.941,2.485,9.545,4.983,13.625c6.569,10.73,18.42,17.832,31.539,17.832
		c1.854,0,3.729-0.142,5.576-0.421c17.025-2.578,29.6-16.444,31.265-32.835c0.308-3.021,0.245-6.128-0.229-9.266
		C105.728,72.822,90.027,59.298,71.919,59.298z M39.675,110.201c-1.189-2.723-2.048-5.625-2.508-8.663
		c-1.402-9.27,0.889-18.531,6.452-26.078c5.563-7.547,13.732-12.476,23.002-13.878c1.755-0.266,3.537-0.4,5.298-0.4
		c3.394,0,6.693,0.507,9.83,1.441c8.435,4.365,15.046,11.997,17.933,21.499c0.503,1.654,0.897,3.363,1.164,5.123
		c2.978,19.682-10.564,38.051-30.244,41.03c-1.933,0.292-3.85,0.413-5.742,0.396C53.683,128.359,44.223,120.62,39.675,110.201z"/>
	<path d="M168.117,152.775l-32.954,22.597c-0.43,0.294-0.538,0.88-0.245,1.309c0.183,0.266,0.479,0.409,0.778,0.409
		c0.183,0,0.368-0.053,0.531-0.165l32.954-22.597c0.43-0.294,0.538-0.88,0.245-1.309C169.132,152.59,168.546,152.48,168.117,152.775
		z"/>
	<path d="M24.983,6.826h1.805v4.001c0,0.52,0.421,0.941,0.941,0.941s0.941-0.421,0.941-0.941V6.826h1.806
		c0.521,0,0.941-0.422,0.941-0.941c0-0.52-0.421-0.942-0.941-0.942h-1.806V0.941C28.671,0.421,28.25,0,27.729,0
		s-0.941,0.421-0.941,0.941v4.001h-1.805c-0.521,0-0.941,0.422-0.941,0.942C24.042,6.404,24.463,6.826,24.983,6.826z"/>
</g>
</svg>
