<?xml version="1.0" encoding="utf-8"?>
<!-- Generator: Adobe Illustrator 16.0.0, SVG Export Plug-In . SVG Version: 6.00 Build 0)  -->
<!DOCTYPE svg PUBLIC "-//W3C//DTD SVG 1.1//EN" "http://www.w3.org/Graphics/SVG/1.1/DTD/svg11.dtd">
<svg version="1.1" id="Layer_1" xmlns="http://www.w3.org/2000/svg" xmlns:xlink="http://www.w3.org/1999/xlink" x="0px" y="0px"
	 width="160.511px" height="222.793px" viewBox="0 0 160.511 222.793" enable-background="new 0 0 160.511 222.793"
	 xml:space="preserve">
<g>
	<path fill="none" d="M79.885,150.516c-0.346-0.038-0.697-0.057-1.051-0.057c-6.9,0-15.138,7.021-16.674,17.974
		c-1.314,9.364,0.538,18.066,5.084,23.874c1.564,2,3.406,3.605,5.47,4.787c9.008-9.47,14.837-20.436,15.586-30.275
		C89.027,157.257,85.882,151.164,79.885,150.516z"/>
	<path d="M152.793,36.332C144.169,13.217,131.22,0.395,131.09,0.268c-0.373-0.363-0.968-0.356-1.331,0.016
		c-0.364,0.372-0.357,0.968,0.015,1.332c0.127,0.124,12.776,12.65,21.256,35.376c7.835,21,13.573,55.215-3.584,98.955
		c-24.639,62.807-57.932,64.429-67.554,63.434c-1.918-0.199-3.736-0.673-5.431-1.408c9.078-9.699,14.948-20.908,15.717-31.009
		c0.813-10.7-2.958-17.548-10.091-18.318c-7.938-0.866-18.026,6.949-19.792,19.528c-1.385,9.867,0.607,19.086,5.467,25.297
		c1.612,2.062,3.494,3.742,5.596,5.017c-4.199,4.198-9.025,8.067-14.305,11.366c-18.356,11.474-38.682,14.166-55.764,7.386
		c-0.482-0.189-1.029,0.045-1.223,0.528c-0.191,0.483,0.045,1.031,0.528,1.223c6.421,2.548,13.276,3.805,20.312,3.805
		c12.298,0,25.142-3.843,37.145-11.344c5.56-3.475,10.634-7.578,15.025-12.037c2.045,0.975,4.264,1.595,6.621,1.839
		c9.956,1.035,44.378-0.575,69.5-64.618C166.573,92.339,160.743,57.641,152.793,36.332z M72.714,197.094
		c-2.063-1.182-3.905-2.787-5.47-4.787c-4.546-5.808-6.398-14.51-5.084-23.874c1.536-10.952,9.773-17.974,16.674-17.974
		c0.354,0,0.705,0.019,1.051,0.057c5.997,0.647,9.143,6.741,8.415,16.303C87.551,176.659,81.722,187.625,72.714,197.094z"/>
</g>
</svg>
