<?xml version="1.0" encoding="utf-8"?>
<!-- Generator: Adobe Illustrator 16.0.0, SVG Export Plug-In . SVG Version: 6.00 Build 0)  -->
<!DOCTYPE svg PUBLIC "-//W3C//DTD SVG 1.1//EN" "http://www.w3.org/Graphics/SVG/1.1/DTD/svg11.dtd">
<svg version="1.1" id="Layer_1" xmlns="http://www.w3.org/2000/svg" xmlns:xlink="http://www.w3.org/1999/xlink" x="0px" y="0px"
	 width="169.449px" height="136.996px" viewBox="0 0 169.449 136.996" enable-background="new 0 0 169.449 136.996"
	 xml:space="preserve">
<g>
	<path fill="none" d="M131.904,65.663c-5.723-6.427-13.943-10.113-22.555-10.113c-4.04,0-7.994,0.813-11.654,2.349
		c-1.185,0.792-2.335,1.665-3.431,2.64c-4.652,4.143-7.76,9.37-9.298,14.961c5.374-5.345,12.78-8.649,20.958-8.649
		c16.417,0,29.726,13.308,29.726,29.725c0,1.572-0.124,3.114-0.358,4.619c2.46-4.115,3.914-8.788,4.2-13.713
		C139.958,79.432,137.263,71.684,131.904,65.663z"/>
	<path fill="#DAECD3" d="M105.924,126.3c13.046,0,24.12-8.408,28.122-20.097c-1.024,1.23-2.146,2.393-3.364,3.478
		c-5.88,5.234-13.448,8.117-21.311,8.117c-9.148,0-17.882-3.917-23.96-10.745c-4.85-5.447-7.491-12.103-8.002-18.868
		c-0.782,2.662-1.209,5.476-1.209,8.39C76.2,112.992,89.508,126.3,105.924,126.3z"/>
	<path fill="#DAECD3" d="M105.924,66.85c-8.178,0-15.584,3.305-20.958,8.649c-2.706,9.834-0.538,20.795,6.749,28.98
		c6.766,7.6,16.42,11.084,25.835,10.304c4.366-1.23,8.432-3.44,11.879-6.511c2.338-2.08,4.301-4.469,5.862-7.08
		c0.234-1.505,0.358-3.047,0.358-4.619C135.65,80.158,122.341,66.85,105.924,66.85z"/>
	<circle cx="166.788" cy="127.901" r="2.661"/>
	<path d="M85.411,107.053c6.079,6.828,14.812,10.745,23.96,10.745c7.862,0,15.431-2.883,21.311-8.117
		c1.218-1.084,2.34-2.248,3.364-3.478c4.357-5.231,6.924-11.69,7.326-18.613c0.496-8.551-2.367-16.783-8.063-23.18
		c-6.08-6.828-14.813-10.744-23.961-10.744c-7.863,0-15.431,2.882-21.309,8.115c-7.758,6.907-11.359,16.766-10.631,26.403
		C77.92,94.95,80.562,101.606,85.411,107.053z M131.904,65.663c5.359,6.021,8.055,13.77,7.588,21.818
		c-0.286,4.925-1.74,9.598-4.2,13.713c-1.562,2.611-3.524,5-5.862,7.08c-3.447,3.07-7.513,5.28-11.879,6.511
		c-9.415,0.78-19.069-2.705-25.835-10.304c-7.287-8.186-9.455-19.146-6.749-28.98c1.538-5.591,4.646-10.818,9.298-14.961
		c1.095-0.975,2.246-1.848,3.431-2.64c3.66-1.535,7.614-2.349,11.654-2.349C117.96,55.55,126.181,59.236,131.904,65.663z"/>
	<path d="M28.897,136.835c0.161,0.109,0.344,0.161,0.525,0.161c0.302,0,0.599-0.146,0.781-0.415
		c0.291-0.431,0.177-1.017-0.254-1.307l-28.482-19.2c-0.429-0.291-1.015-0.178-1.306,0.254s-0.177,1.017,0.254,1.307L28.897,136.835
		z"/>
	<path d="M142.958,6.826h1.806v4.001c0,0.52,0.421,0.941,0.941,0.941s0.941-0.421,0.941-0.941V6.826h1.806
		c0.52,0,0.941-0.421,0.941-0.941s-0.422-0.942-0.941-0.942h-1.806V0.941c0-0.52-0.421-0.941-0.941-0.941s-0.941,0.421-0.941,0.941
		v4.001h-1.806c-0.52,0-0.941,0.422-0.941,0.942S142.439,6.826,142.958,6.826z"/>
</g>
</svg>
