<?xml version="1.0" encoding="utf-8"?>
<!-- Generator: Adobe Illustrator 16.0.0, SVG Export Plug-In . SVG Version: 6.00 Build 0)  -->
<!DOCTYPE svg PUBLIC "-//W3C//DTD SVG 1.1//EN" "http://www.w3.org/Graphics/SVG/1.1/DTD/svg11.dtd">
<svg version="1.1" id="Layer_1" xmlns="http://www.w3.org/2000/svg" xmlns:xlink="http://www.w3.org/1999/xlink" x="0px" y="0px"
	 width="95.91px" height="166.719px" viewBox="0 0 95.91 166.719" enable-background="new 0 0 95.91 166.719" xml:space="preserve">
<g>
	<path fill="none" d="M42.961,111.653c4.981-5.229,4.081-12.563,0.39-16.359c-2.863-2.944-8.042-4.185-13.996,1.174
		c-5.038,4.535-7.766,12.378-7.66,21.588C29.318,120.271,36.853,118.067,42.961,111.653z"/>
	<path d="M50.868,164.943c-15.825-8.319-26.591-23.824-28.799-41.476c-0.146-1.17-0.25-2.324-0.31-3.46
		c8.075,2.09,16.185-0.356,22.566-7.057c5.752-6.039,4.674-14.549,0.376-18.97c-3.475-3.573-9.662-5.166-16.607,1.087
		c-5.315,4.783-8.254,12.879-8.284,22.349c-1.104-0.427-2.207-0.946-3.305-1.559C1.726,107.61-5.331,84.039,12.223,49.974
		C26.722,21.835,48.392,10.334,64.019,5.64c16.973-5.097,30.7-3.505,30.836-3.488c0.51,0.078,0.986-0.303,1.049-0.82
		c0.064-0.516-0.305-0.984-0.818-1.048c-0.572-0.071-14.194-1.66-31.531,3.529C47.554,8.604,25.368,20.351,10.55,49.111
		c-18.13,35.185-10.534,59.701,5.039,68.392c1.408,0.786,2.83,1.426,4.259,1.925c0.055,1.4,0.172,2.827,0.353,4.273
		c2.284,18.263,13.421,34.303,29.791,42.908c0.14,0.074,0.289,0.109,0.438,0.109c0.338,0,0.665-0.184,0.834-0.503
		C51.505,165.755,51.327,165.186,50.868,164.943z M29.354,96.468c5.955-5.358,11.133-4.118,13.996-1.174
		c3.691,3.796,4.592,11.13-0.39,16.359c-6.108,6.414-13.643,8.618-21.266,6.402C21.588,108.846,24.316,101.003,29.354,96.468z"/>
</g>
</svg>
