<?xml version="1.0" encoding="utf-8"?>
<!-- Generator: Adobe Illustrator 16.0.0, SVG Export Plug-In . SVG Version: 6.00 Build 0)  -->
<!DOCTYPE svg PUBLIC "-//W3C//DTD SVG 1.1//EN" "http://www.w3.org/Graphics/SVG/1.1/DTD/svg11.dtd">
<svg version="1.1" id="Layer_1" xmlns="http://www.w3.org/2000/svg" xmlns:xlink="http://www.w3.org/1999/xlink" x="0px" y="0px"
	 width="106.708px" height="124.915px" viewBox="0 0 106.708 124.915" enable-background="new 0 0 106.708 124.915"
	 xml:space="preserve">
<g>
	<path d="M105.507,0.037c-0.296,0.086-7.305,2.164-12.271,8.981c-3.031,4.164-3.774,7.577-4.561,11.19
		c-0.773,3.555-1.573,7.23-4.725,12.076c-3.072,4.719-7.3,6.498-11.775,8.381c-4.541,1.91-9.235,3.886-12.772,9.059
		c-2.931,4.286-3.603,7.736-4.253,11.073c-0.71,3.645-1.443,7.411-5.223,12.558c-3.568,4.858-7.951,6.563-12.188,8.212
		c-4.291,1.67-8.727,3.395-12.148,8.283c-3.569,5.099-4.272,8.937-4.953,12.648c-0.587,3.203-1.142,6.23-3.644,9.876
		c-5.228,7.615-16.19,10.659-16.3,10.688c-0.502,0.137-0.799,0.653-0.663,1.155c0.113,0.419,0.493,0.696,0.908,0.696
		c0.082,0,0.165-0.012,0.246-0.033c0.477-0.129,11.736-3.247,17.361-11.441c2.73-3.978,3.347-7.346,3.944-10.604
		c0.644-3.513,1.31-7.145,4.644-11.907c3.093-4.419,7.073-5.968,11.288-7.607c4.489-1.746,9.13-3.552,13.022-8.853
		c4.029-5.486,4.805-9.464,5.554-13.312c0.642-3.294,1.249-6.406,3.958-10.371c3.225-4.715,7.462-6.498,11.949-8.385
		c4.541-1.911,9.235-3.887,12.623-9.092c3.342-5.132,4.216-9.154,4.987-12.701c0.743-3.414,1.445-6.639,4.244-10.481
		c4.572-6.277,11.203-8.262,11.269-8.282c0.5-0.144,0.787-0.665,0.643-1.165C106.527,0.183,106.007-0.108,105.507,0.037z"/>
</g>
</svg>
