<?xml version="1.0" encoding="utf-8"?>
<!-- Generator: Adobe Illustrator 16.0.0, SVG Export Plug-In . SVG Version: 6.00 Build 0)  -->
<!DOCTYPE svg PUBLIC "-//W3C//DTD SVG 1.1//EN" "http://www.w3.org/Graphics/SVG/1.1/DTD/svg11.dtd">
<svg version="1.1" id="Layer_1" xmlns="http://www.w3.org/2000/svg" xmlns:xlink="http://www.w3.org/1999/xlink" x="0px" y="0px"
	 width="129.588px" height="140.789px" viewBox="0 0 129.588 140.789" enable-background="new 0 0 129.588 140.789"
	 xml:space="preserve">
<g>
	<path fill="none" d="M56.737,62.521C64.442,66.7,69.675,74.858,69.675,84.24c0,13.638-11.056,24.691-24.693,24.691
		c-0.634,0-1.262-0.031-1.884-0.079c3.262,1.487,6.849,2.306,10.56,2.306c4.247,0.001,8.471-1.087,12.218-3.146
		c5.952-3.269,10.274-8.661,12.172-15.182c1.896-6.521,1.141-13.39-2.129-19.342c-2.027-3.689-4.9-6.736-8.294-8.974
		C64.192,63.098,60.48,62.409,56.737,62.521z"/>
	<path fill="#E9E2F0" d="M29.701,98.879c-7.249-13.197-2.411-29.832,10.783-37.082c1.704-0.936,3.504-1.673,5.355-2.227
		c-0.285-0.009-0.57-0.021-0.858-0.021c-13.636,0-24.691,11.054-24.691,24.691c0,11.06,7.271,20.418,17.291,23.562
		C34.385,105.479,31.669,102.464,29.701,98.879z"/>
	<path fill="#E9E2F0" d="M69.675,84.24c0-9.382-5.232-17.54-12.938-21.719c-4.033,0.122-8.099,1.165-11.879,3.241
		c-12.764,7.012-17.425,23.04-10.415,35.804c0.473,0.859,0.999,1.669,1.549,2.452c2.082,2.008,4.485,3.64,7.105,4.834
		c0.622,0.048,1.25,0.079,1.884,0.079C58.619,108.932,69.675,97.878,69.675,84.24z"/>
	<circle cx="26.834" cy="138.644" r="2.146"/>
	<path d="M53.609,58.418c-2.63,0-5.25,0.4-7.77,1.152c-1.852,0.554-3.651,1.291-5.355,2.227
		c-13.194,7.25-18.032,23.885-10.783,37.082c1.968,3.585,4.684,6.6,7.88,8.923c4.595,3.341,10.192,5.239,16.076,5.239
		c0.001,0,0,0,0.001,0c4.562,0,9.1-1.168,13.124-3.377c6.393-3.512,11.035-9.304,13.073-16.308
		c2.036-7.004,1.225-14.381-2.288-20.773C72.767,63.846,63.587,58.418,53.609,58.418z M78.047,92.831
		c-1.897,6.521-6.22,11.913-12.172,15.182c-3.747,2.059-7.971,3.146-12.218,3.146c-3.711,0-7.298-0.818-10.56-2.306
		c-2.62-1.194-5.023-2.826-7.105-4.834c-0.55-0.783-1.076-1.593-1.549-2.452c-7.01-12.764-2.349-28.792,10.415-35.804
		c3.78-2.076,7.846-3.119,11.879-3.241c3.743-0.112,7.455,0.576,10.887,1.994c3.394,2.237,6.267,5.284,8.294,8.974
		C79.188,79.441,79.943,86.31,78.047,92.831z"/>
	<path d="M12.631,0.077C12.152-0.13,11.6,0.093,11.394,0.57L0.076,26.934c-0.205,0.479,0.016,1.032,0.493,1.237
		c0.122,0.052,0.247,0.076,0.372,0.076c0.364,0,0.711-0.214,0.865-0.57L13.124,1.313C13.329,0.835,13.108,0.282,12.631,0.077z"/>
	<path d="M128.646,102.845h-3.045v-1.273c0-0.521-0.421-0.941-0.941-0.941s-0.941,0.421-0.941,0.941v1.273h-3.046
		c-0.521,0-0.941,0.422-0.941,0.941c0,0.521,0.421,0.942,0.941,0.942h3.046v1.273c0,0.521,0.421,0.941,0.941,0.941
		s0.941-0.421,0.941-0.941v-1.273h3.045c0.521,0,0.942-0.422,0.942-0.942C129.588,103.267,129.166,102.845,128.646,102.845z"/>
</g>
</svg>
