<?xml version="1.0" encoding="utf-8"?>
<!-- Generator: Adobe Illustrator 16.0.0, SVG Export Plug-In . SVG Version: 6.00 Build 0)  -->
<!DOCTYPE svg PUBLIC "-//W3C//DTD SVG 1.1//EN" "http://www.w3.org/Graphics/SVG/1.1/DTD/svg11.dtd">
<svg version="1.1" id="Layer_1" xmlns="http://www.w3.org/2000/svg" xmlns:xlink="http://www.w3.org/1999/xlink" x="0px" y="0px"
	 width="144.429px" height="114.478px" viewBox="0 0 144.429 114.478" enable-background="new 0 0 144.429 114.478"
	 xml:space="preserve">
<g>
	<path fill="none" d="M72.872,62.274c4.561-4.656,10.914-7.549,17.945-7.549c13.875,0,25.123,11.246,25.123,25.12
		c0,3.175-0.596,6.21-1.67,9.006c3.013-3.613,5.1-8.039,5.839-12.926c1.059-7-0.672-13.992-4.872-19.69s-10.368-9.419-17.367-10.479
		c-1.325-0.199-2.67-0.302-4-0.302c-2.955,0-5.819,0.508-8.506,1.437C79.557,50.216,75.013,55.624,72.872,62.274z"/>
	<path fill="#FCD6D7" d="M90.817,54.726c-7.031,0-13.385,2.893-17.945,7.549c-0.447,1.393-0.803,2.832-1.029,4.325
		c-2.267,14.987,8.044,28.974,23.03,31.242c1.096,0.166,2.184,0.245,3.263,0.279c6.38-1.046,12.093-4.421,16.135-9.27
		c1.074-2.796,1.67-5.831,1.67-9.006C115.94,65.972,104.692,54.726,90.817,54.726z"/>
	<path fill="#FCD6D7" d="M93.937,100.353c-1.422,0-2.862-0.109-4.278-0.324c-12.438-1.883-21.777-11.62-23.749-23.403
		c-0.136,1.055-0.213,2.129-0.213,3.221c0,13.874,11.248,25.121,25.121,25.121c8.508,0,16.022-4.232,20.566-10.702
		c-4.858,3.819-10.95,6.088-17.445,6.088C93.938,100.353,93.938,100.353,93.937,100.353z"/>
	<circle cx="142.282" cy="106.632" r="2.146"/>
	<path d="M98.151,43.896c-1.418-0.215-2.857-0.323-4.281-0.323c-13.898,0-25.95,10.379-28.032,24.143
		c-0.46,3.036-0.41,6.033,0.071,8.91c1.972,11.783,11.311,21.521,23.749,23.403c1.416,0.215,2.856,0.324,4.278,0.324
		c0.001,0,0.001,0,0.001,0c6.496,0,12.588-2.269,17.446-6.088c5.539-4.355,9.478-10.726,10.586-18.058
		c1.136-7.496-0.717-14.986-5.216-21.089C112.255,49.015,105.648,45.029,98.151,43.896z M120.109,75.926
		c-0.739,4.887-2.826,9.313-5.839,12.926c-4.042,4.849-9.755,8.224-16.135,9.27c-1.079-0.034-2.167-0.113-3.263-0.279
		C79.887,95.573,69.576,81.587,71.843,66.6c0.227-1.493,0.582-2.933,1.029-4.325c2.141-6.65,6.685-12.059,12.492-15.383
		c2.687-0.929,5.551-1.437,8.506-1.437c1.33,0,2.675,0.103,4,0.302c6.999,1.06,13.167,4.78,17.367,10.479
		S121.168,68.926,120.109,75.926z"/>
	<path d="M1.475,94.533c-0.429-0.295-1.014-0.186-1.31,0.244c-0.293,0.429-0.185,1.016,0.245,1.31l26.579,18.226
		c0.162,0.111,0.348,0.165,0.531,0.165c0.3,0,0.595-0.143,0.777-0.409c0.294-0.429,0.186-1.016-0.244-1.31L1.475,94.533z"/>
	<path d="M126.843,3.987h-1.273V0.942c0-0.521-0.421-0.942-0.941-0.942s-0.941,0.422-0.941,0.942v3.045h-1.273
		c-0.521,0-0.941,0.421-0.941,0.941s0.421,0.941,0.941,0.941h1.273v3.046c0,0.521,0.421,0.941,0.941,0.941s0.941-0.421,0.941-0.941
		V5.87h1.273c0.521,0,0.942-0.421,0.942-0.941S127.363,3.987,126.843,3.987z"/>
</g>
</svg>
