<?xml version="1.0" encoding="utf-8"?>
<!-- Generator: Adobe Illustrator 16.0.0, SVG Export Plug-In . SVG Version: 6.00 Build 0)  -->
<!DOCTYPE svg PUBLIC "-//W3C//DTD SVG 1.1//EN" "http://www.w3.org/Graphics/SVG/1.1/DTD/svg11.dtd">
<svg version="1.1" id="Layer_1" xmlns="http://www.w3.org/2000/svg" xmlns:xlink="http://www.w3.org/1999/xlink" x="0px" y="0px"
	 width="114.433px" height="216.363px" viewBox="0 0 114.433 216.363" enable-background="new 0 0 114.433 216.363"
	 xml:space="preserve">
<g>
	<path fill="none" d="M72.795,159.143c2.171-9.228-3.425-17.361-10.013-19.169c-0.963-0.264-1.903-0.394-2.814-0.394
		c-5.01,0-9.145,3.919-11.363,10.979c-2.689,8.557-0.654,19.599,5.3,30.134C62.957,178.677,70.047,170.819,72.795,159.143z"/>
	<path d="M113.459,214.44c-21.106,0.75-41.58-9.187-54.81-26.561c-1.365-1.794-2.614-3.625-3.741-5.476
		c9.475-2.356,16.853-10.641,19.72-22.829c2.498-10.62-3.944-19.385-11.348-21.417c-5.671-1.556-12.982,0.735-16.473,11.836
		c-2.791,8.882-0.815,20.224,5.135,31.041c-1.609,0.202-3.273,0.227-4.976,0.063c-15.71-1.516-42.861-18.368-44.971-71.913
		C0.372,67.973,16.59,40.984,30.48,25.599C45.553,8.906,61.224,1.873,61.38,1.804c0.476-0.21,0.691-0.766,0.482-1.241
		c-0.209-0.475-0.764-0.693-1.241-0.482c-0.159,0.07-16.141,7.229-31.48,24.193C14.988,39.924-1.536,67.373,0.114,109.258
		c2.16,54.842,30.354,72.139,46.673,73.715c2.121,0.204,4.182,0.142,6.165-0.173c1.25,2.107,2.651,4.187,4.199,6.219
		c13.124,17.237,33.205,27.344,54.097,27.344c0.756,0,1.519-0.014,2.277-0.04c0.52-0.019,0.926-0.454,0.907-0.975
		S113.933,214.422,113.459,214.44z M48.604,150.559c2.219-7.06,6.354-10.979,11.363-10.979c0.911,0,1.852,0.13,2.814,0.394
		c6.588,1.808,12.184,9.941,10.013,19.169c-2.748,11.676-9.838,19.534-18.891,21.55C47.95,170.158,45.915,159.116,48.604,150.559z"
		/>
</g>
</svg>
