<?xml version="1.0" encoding="utf-8"?>
<!-- Generator: Adobe Illustrator 16.0.0, SVG Export Plug-In . SVG Version: 6.00 Build 0)  -->
<!DOCTYPE svg PUBLIC "-//W3C//DTD SVG 1.1//EN" "http://www.w3.org/Graphics/SVG/1.1/DTD/svg11.dtd">
<svg version="1.1" id="Layer_1" xmlns="http://www.w3.org/2000/svg" xmlns:xlink="http://www.w3.org/1999/xlink" x="0px" y="0px"
	 width="497.644px" height="152.089px" viewBox="0 0 497.644 152.089" enable-background="new 0 0 497.644 152.089"
	 xml:space="preserve">
<g>
	<path fill="none" d="M339.557,84.938c0.129,1.341,0.102,2.817,0.061,3.772h88.711c-16.185-4.416-38.167-10.331-39.541-10.577
		c-1.257-0.207-29.256-1.955-53.181-3.42c0.439,0.993,0.841,1.888,1.198,2.687C338.58,81.36,339.39,83.167,339.557,84.938z"/>
	<path fill="none" d="M220.143,78.435c0.312-1.534,1.032-5.349,1.336-9.223c0.271-3.477,0.166-6.355,0.077-7.781
		c-0.626,0.066-1.396,0.118-2.342,0.118c-1.694,0-3.912-0.159-6.689-0.66c-5.626-1.016-11.306-4.042-13.781-5.484
		c-0.414,3.8-0.681,6.645-0.688,6.716c-0.045,0.486-0.451,0.855-0.938,0.855h-11.553c3.898,3.565,6.479,7.666,6.479,10.823
		c0,0.69-0.104,1.296-0.281,1.846l7.691,5.161c3.32-0.74,7.085-1.372,11.341-1.795C213.945,78.698,217.094,78.521,220.143,78.435z"
		/>
	<path fill="none" d="M491.413,104.584c-3.885-5.53-12.186-14.983-16.068-15.688c-0.981-0.178-2.732-0.238-4.12-0.257
		c2.176,2.557,3.921,4.821,4.05,4.989c0.317,0.412,0.239,1.004-0.173,1.32c-0.171,0.131-0.374,0.194-0.573,0.194
		c-0.283,0-0.562-0.126-0.747-0.367c-0.057-0.074-5.68-7.376-9.351-10.594c-4.649-4.077-9.457-8.293-26.624-15.735
		c-12.081-5.239-28.326-7.838-48.383-7.747l-1.006,0.003c-4.649,0-16-5.972-24.288-10.333c-1.678-0.883-3.203-1.686-4.479-2.335
		l-1.106-0.564c-6.29-3.221-16.925-8.652-28.776-10.688c1.394,2.859,4.192,8.877,5.551,13.702
		c2.921,10.393,2.709,13.013,1.419,13.871c-0.948,0.633-1.958,0.121-2.696-0.252c-1.144-0.579-1.3-0.53-1.66-0.001
		c-0.903,1.323-0.696,1.903,1.189,6.046c0.346,0.761,0.743,1.633,1.183,2.627c21.317,1.304,53.052,3.271,54.366,3.506
		c1.929,0.346,37.703,10.03,50.876,13.681c1.893,0.524,3.614,0.983,5.201,1.408c9.568,2.558,14.371,3.842,22.528,10.019
		c6.371,4.822,21.287,16.11,24.559,14.541c1.045-0.504,1.738-1.276,2.059-2.293c0.539-1.711,0.027-4.148-1.402-6.69
		c-0.355-0.631-0.87-1.425-1.496-2.319C491.431,104.613,491.423,104.597,491.413,104.584z"/>
	<path fill="none" d="M221.129,59.579l-7.004-6.479c-0.383-0.354-0.405-0.949-0.053-1.332c0.354-0.381,0.949-0.404,1.331-0.051
		l30.345,28.073c0.302,0.278,0.387,0.72,0.213,1.092c-0.174,0.37-0.567,0.587-0.976,0.533c-0.169-0.023-17.125-2.21-34.005-0.531
		c-14.701,1.461-23.555,5.517-27.557,7.826h89.456c-3.438-3.92-12.682-14.407-19.564-21.685
		c-8.199-8.671-24.213-24.598-25.741-26.117c-10.382-4.438-20.037-8.549-21.502-8.987c-0.957-0.287-1.575-0.292-2.066-0.016
		c-0.947,0.532-1.809,2.332-2.635,5.5c-0.852,3.267-1.753,10.234-2.4,15.942c1.749,1.056,7.964,4.617,13.888,5.686
		C216.808,59.748,219.527,59.726,221.129,59.579z"/>
	<path fill="none" d="M241.251,51.947l4.13-3.43c-4.061-1.726-8.634-3.683-13.133-5.608
		C234.565,45.222,237.807,48.469,241.251,51.947z"/>
	<path fill="none" d="M223.461,61.738c0.086,1.584,0.153,4.322-0.105,7.621c-0.29,3.701-0.932,7.262-1.283,9.034
		c5.659-0.088,10.867,0.128,14.904,0.398l-12.534-16.146L223.461,61.738z"/>
	<path fill="none" d="M475.681,87.042c4.518,0.821,12.828,10.314,16.941,16.016c0.906-0.051,2.899-0.434,3.141-2.818
		c0.067-1.703-7.83-13.883-11.471-16.451c-2.013-1.421-12.789-2.579-21.083-3.145c0.863,0.721,1.666,1.424,2.462,2.122
		c1.203,1.055,2.58,2.495,3.909,3.984C470.763,86.741,474.05,86.746,475.681,87.042z"/>
	<path fill="none" d="M254.684,65.732c7.878,8.33,18.831,20.839,20.698,22.979h62.349c0.041-0.895,0.073-2.333-0.048-3.595
		c-0.139-1.461-0.909-3.18-2.597-6.945c-0.462-1.032-0.994-2.223-1.595-3.587c-6.299-0.386-12.243-0.747-17.253-1.049
		c-0.519-0.031-0.914-0.479-0.882-0.997c0.031-0.519,0.496-0.92,0.996-0.883c1.99,0.121,8.235,0.498,16.279,0.989
		c-0.28-0.624-0.541-1.198-0.776-1.718c-1.92-4.215-2.566-5.636-1.031-7.887c1.356-1.986,3.186-1.063,4.065-0.618
		c0.229,0.116,0.591,0.3,0.779,0.341c0.2-0.504,0.396-2.661-2.165-11.77c-1.531-5.44-5.08-12.699-6.005-14.55
		c-2.215-0.292-4.46-0.472-6.725-0.472c-16.106,0-26.676,7.102-35.168,12.808c-1.419,0.954-2.731,1.84-3.939,2.657
		c-7.409,5.009-9.817,6.593-11.158,6.593c-1.229,0-3.881-0.563-19.881-7.292c-1.026-0.433-2.141-0.903-3.296-1.393l-4.752,3.945
		C246.917,57.678,251.418,62.278,254.684,65.732z"/>
	<path fill="none" d="M44.454,1.883c-2.799,0-5.076,2.276-5.076,5.075c0,2.798,2.277,5.073,5.076,5.073
		c2.797,0,5.073-2.275,5.073-5.073C49.526,4.159,47.25,1.883,44.454,1.883z"/>
	<path d="M74.13,50.2h-9.619V37.971c0-0.521-0.421-0.941-0.941-0.941c-0.521,0-0.942,0.421-0.942,0.941V50.2h-9.62
		c-0.521,0-0.941,0.421-0.941,0.941s0.421,0.941,0.941,0.941h9.62v12.23c0,0.52,0.421,0.941,0.942,0.941
		c0.52,0,0.941-0.422,0.941-0.941v-12.23h9.619c0.521,0,0.941-0.421,0.941-0.941S74.65,50.2,74.13,50.2z"/>
	<circle cx="6.951" cy="91.444" r="6.951"/>
	<path d="M44.454,0c-3.837,0-6.959,3.12-6.959,6.958c0,3.836,3.122,6.957,6.959,6.957c3.835,0,6.956-3.121,6.956-6.957
		C51.409,3.12,48.289,0,44.454,0z M44.454,12.031c-2.799,0-5.076-2.275-5.076-5.073c0-2.799,2.277-5.075,5.076-5.075
		c2.797,0,5.073,2.276,5.073,5.075C49.526,9.756,47.25,12.031,44.454,12.031z"/>
	<path d="M493.813,104.78c1.676-0.396,3.542-1.573,3.824-4.351c0.285-2.801-8.791-15.734-12.261-18.18
		c-3.31-2.337-21.519-3.47-24.756-3.654c-4.165-3.111-10.232-6.747-22.065-11.878c-12.322-5.342-28.877-8.023-49.141-7.902
		l-0.997,0.004c-4.184,0-15.754-6.088-23.41-10.116c-1.687-0.888-3.221-1.693-4.503-2.347l-1.103-0.564
		c-7.991-4.09-22.866-11.703-38.627-11.703c-16.681,0-27.974,7.588-36.219,13.128c-1.42,0.954-2.733,1.841-3.943,2.659
		c-5.146,3.479-9.211,6.227-10.104,6.271c-1.495,0-7.401-2.204-19.151-7.146c-5.105-2.146-12.01-5.102-18.688-7.959
		c-12.489-5.345-24.287-10.394-26.058-10.924c-0.992-0.298-2.291-0.55-3.528,0.146c-1.476,0.831-2.533,2.825-3.535,6.668
		c-1.427,5.471-2.923,20.382-3.287,24.161h-4.194c-2.701-3.671-13.287-16.89-25.295-16.371
		c-13.937,0.602-15.373,8.623-20.855,14.237c-5.48,5.615-9.09,6.229-24.864,12.071c-15.775,5.842-23.26,14.666-24.197,27.1
		c-0.935,12.431,5.482,18.848,10.294,19.25c0.547,0.046,1.323,0.086,2.267,0.118c-0.086,0.956-0.138,1.923-0.138,2.901
		c0,17.474,14.215,31.689,31.688,31.689H431.16c17.472,0,31.688-14.216,31.688-31.689c0-10.731-5.367-20.228-13.553-25.963
		c6.512,1.841,10.832,3.56,17.294,8.452c12.414,9.399,20.762,15.039,25.027,15.039c0.566,0,1.062-0.1,1.483-0.304
		c1.512-0.727,2.563-1.911,3.039-3.424c0.703-2.236,0.15-5.142-1.559-8.178C494.381,105.669,494.12,105.247,493.813,104.78z
		 M484.292,83.788c3.641,2.568,11.538,14.748,11.471,16.451c-0.241,2.385-2.234,2.768-3.141,2.818
		c-4.113-5.701-12.424-15.194-16.941-16.016c-1.631-0.296-4.918-0.301-6.101-0.292c-1.329-1.489-2.706-2.93-3.909-3.984
		c-0.796-0.698-1.599-1.401-2.462-2.122C471.503,81.209,482.28,82.367,484.292,83.788z M270.509,58.029
		c1.341,0,3.749-1.584,11.158-6.593c1.208-0.817,2.521-1.703,3.939-2.657c8.492-5.706,19.062-12.808,35.168-12.808
		c2.265,0,4.51,0.18,6.725,0.472c0.925,1.851,4.474,9.109,6.005,14.55c2.561,9.108,2.365,11.266,2.165,11.77
		c-0.188-0.041-0.551-0.225-0.779-0.341c-0.88-0.444-2.709-1.368-4.065,0.618c-1.535,2.251-0.889,3.672,1.031,7.887
		c0.235,0.52,0.496,1.094,0.776,1.718c-8.044-0.491-14.289-0.868-16.279-0.989c-0.5-0.037-0.965,0.364-0.996,0.883
		c-0.032,0.519,0.363,0.966,0.882,0.997c5.01,0.302,10.954,0.663,17.253,1.049c0.601,1.364,1.133,2.555,1.595,3.587
		c1.688,3.766,2.458,5.484,2.597,6.945c0.121,1.262,0.089,2.7,0.048,3.595h-62.349c-1.867-2.14-12.82-14.648-20.698-22.979
		c-3.266-3.454-7.767-8.055-12.104-12.442l4.752-3.945c1.155,0.489,2.27,0.96,3.296,1.393
		C266.628,57.466,269.28,58.029,270.509,58.029z M431.16,150.206H140.967c-16.435,0-29.805-13.372-29.805-29.807
		c0-0.962,0.05-1.91,0.14-2.849c1.439-15.104,14.191-26.956,29.665-26.956h38.468h95.52h63.667h92.538
		c16.434,0,29.804,13.369,29.804,29.805C460.963,136.834,447.593,150.206,431.16,150.206z M167.984,65.683
		c0.216-0.152,0.358-0.392,0.391-0.654c0.032-0.265-0.049-0.53-0.223-0.73c-0.028-0.033-2.86-3.342-2.979-6.047
		c-0.011-0.227,0.054-0.398,0.205-0.559c0.434-0.451,1.489-0.721,2.826-0.721c2.803,0,6.496,1.102,9.881,2.948
		c0.774,0.422,1.51,0.874,2.222,1.338c0.328,0.216,0.649,0.435,0.964,0.657c0.49,0.346,0.964,0.7,1.418,1.061
		c4.701,3.73,7.472,8.111,7.472,10.823c0,0.114-0.011,0.22-0.019,0.328c-0.184,2.733-2.699,3.638-7.738,5.188
		c-4.814,1.481-18.539,3.932-20.18,4.222c-0.216-0.267-0.903-1.457-1.063-5.896C160.917,70.765,167.913,65.733,167.984,65.683z
		 M339.618,88.711c0.041-0.955,0.068-2.432-0.061-3.772c-0.167-1.771-0.978-3.578-2.752-7.538c-0.357-0.799-0.759-1.693-1.198-2.687
		c23.925,1.465,51.924,3.213,53.181,3.42c1.374,0.246,23.356,6.161,39.541,10.577H339.618z M245.381,48.518l-4.13,3.43
		c-3.444-3.479-6.687-6.726-9.003-9.038C236.748,44.835,241.321,46.792,245.381,48.518z M201.372,37.406
		c0.826-3.168,1.688-4.968,2.635-5.5c0.491-0.276,1.109-0.271,2.066,0.016c1.465,0.438,11.12,4.549,21.502,8.987
		c1.528,1.52,17.542,17.446,25.741,26.117c6.883,7.277,16.127,17.765,19.564,21.685h-89.456c4.002-2.31,12.855-6.365,27.557-7.826
		c16.88-1.679,33.836,0.508,34.005,0.531c0.408,0.054,0.802-0.163,0.976-0.533c0.174-0.372,0.089-0.813-0.213-1.092l-30.345-28.073
		c-0.382-0.354-0.978-0.33-1.331,0.051c-0.353,0.383-0.33,0.979,0.053,1.332l7.004,6.479c-1.603,0.146-4.321,0.169-8.271-0.545
		c-5.924-1.068-12.139-4.63-13.888-5.686C199.619,47.641,200.52,40.673,201.372,37.406z M223.356,69.359
		c0.259-3.299,0.191-6.037,0.105-7.621l0.981,0.907l12.534,16.146c-4.037-0.271-9.245-0.486-14.904-0.398
		C222.424,76.621,223.066,73.061,223.356,69.359z M197.119,62.976c0.486,0,0.893-0.369,0.938-0.855
		c0.007-0.071,0.273-2.916,0.688-6.716c2.476,1.442,8.155,4.469,13.781,5.484c2.777,0.501,4.995,0.66,6.689,0.66
		c0.946,0,1.716-0.052,2.342-0.118c0.089,1.426,0.194,4.305-0.077,7.781c-0.304,3.874-1.024,7.688-1.336,9.223
		c-3.049,0.086-6.198,0.264-9.348,0.576c-4.256,0.423-8.021,1.055-11.341,1.795l-7.691-5.161c0.177-0.55,0.281-1.155,0.281-1.846
		c0-3.157-2.58-7.258-6.479-10.823H197.119z M494.341,113.636c-0.32,1.017-1.014,1.789-2.059,2.293
		c-3.271,1.569-18.188-9.719-24.559-14.541c-8.157-6.177-12.96-7.461-22.528-10.019c-1.587-0.425-3.309-0.884-5.201-1.408
		c-13.173-3.65-48.947-13.335-50.876-13.681c-1.314-0.235-33.049-2.202-54.366-3.506c-0.439-0.994-0.837-1.866-1.183-2.627
		c-1.886-4.143-2.093-4.723-1.189-6.046c0.36-0.529,0.517-0.578,1.66,0.001c0.738,0.373,1.748,0.885,2.696,0.252
		c1.29-0.858,1.502-3.479-1.419-13.871c-1.358-4.825-4.157-10.843-5.551-13.702c11.852,2.036,22.486,7.468,28.776,10.688
		l1.106,0.564c1.276,0.649,2.802,1.452,4.479,2.335c8.288,4.361,19.639,10.333,24.288,10.333l1.006-0.003
		c20.057-0.091,36.302,2.508,48.383,7.747c17.167,7.442,21.975,11.658,26.624,15.735c3.671,3.218,9.294,10.52,9.351,10.594
		c0.186,0.241,0.464,0.367,0.747,0.367c0.199,0,0.402-0.063,0.573-0.194c0.412-0.316,0.49-0.908,0.173-1.32
		c-0.129-0.168-1.874-2.433-4.05-4.989c1.388,0.019,3.139,0.079,4.12,0.257c3.883,0.705,12.184,10.158,16.068,15.688
		c0.01,0.014,0.021,0.028,0.03,0.042c0.626,0.895,1.141,1.688,1.496,2.319C494.369,109.487,494.88,111.925,494.341,113.636z"/>
</g>
</svg>
